<svg xmlns="http://www.w3.org/2000/svg" viewBox="0 0 371.06 399.08"><defs><style>.cls-1{fill:#3030b0;}.cls-2{fill:#fd9031;}.cls-3{fill:#b51ad5;}.cls-4{fill:#04949c;}</style></defs><g id="Ebene_2" data-name="Ebene 2"><path class="cls-1" d="M220.43,68l-60.85,34.94a1.54,1.54,0,0,1-1.55,0l-5.18-3a1.56,1.56,0,0,1,0-2.71l60.84-34.95a1.54,1.54,0,0,1,1.55,0l5.19,3A1.57,1.57,0,0,1,220.43,68ZM106.72,29.23,140.6,9.77a1.58,1.58,0,0,1,1.55,0L168.4,24.85a1.54,1.54,0,0,0,1.55,0l5.18-3a1.56,1.56,0,0,0,0-2.71L142.15.23a1.54,1.54,0,0,0-1.55,0l-50.51,29a1.56,1.56,0,0,0,0,2.71L122.9,50.79a1.56,1.56,0,0,0,1.55,0l5.17-3a1.56,1.56,0,0,0,0-2.7l-22.9-13.16A1.56,1.56,0,0,1,106.72,29.23Zm176.52,0L232.77.21a1.54,1.54,0,0,0-1.55,0L198.34,19.09a1.56,1.56,0,0,0,0,2.71l5.17,3a1.55,1.55,0,0,0,1.56,0l26.16-15a1.58,1.58,0,0,1,1.55,0L266.61,29.2a1.56,1.56,0,0,1,0,2.71L243.5,45.19a1.56,1.56,0,0,0,0,2.71l5.18,3a1.54,1.54,0,0,0,1.55,0l33-19A1.56,1.56,0,0,0,283.24,29.2ZM136.48,195.31l5.17,3A1.55,1.55,0,0,0,144,197l-.06-32.08a1.55,1.55,0,0,1,.78-1.35l30.38-17.46a1.55,1.55,0,0,0,0-2.7l-5.17-3a1.55,1.55,0,0,0-1.56,0l-26.31,15.11a1.54,1.54,0,0,1-1.55,0l-33.85-19.43a1.56,1.56,0,0,1,0-2.71l23.11-13.28a1.56,1.56,0,0,0,0-2.71l-5.18-3a1.54,1.54,0,0,0-1.55,0L91.2,132.69a1.58,1.58,0,0,0-.78,1.36L90.6,220a1.56,1.56,0,0,0,.78,1.35l5.17,3A1.55,1.55,0,0,0,98.89,223l-.17-78.86a1.57,1.57,0,0,1,2.35-1.36l33.79,19.6a1.55,1.55,0,0,1,.77,1.35L135.7,194A1.56,1.56,0,0,0,136.48,195.31Zm180.76-15.93,0,17.69a1.57,1.57,0,0,0,2.34,1.36l5.21-3a1.56,1.56,0,0,0,.78-1.35l0-17.81a1.56,1.56,0,0,0-2.36-1.34L318,178A1.56,1.56,0,0,0,317.24,179.38Zm19.84-74.5,23.3-13.34a1.57,1.57,0,0,1,2.34,1.36v.89l-.09,37.82a1.58,1.58,0,0,1-.79,1.35l-26.26,15a1.57,1.57,0,0,0-.79,1.36v5.87a1.57,1.57,0,0,0,2.34,1.36l33-18.94a1.56,1.56,0,0,0,.78-1.35l.12-55.75a1.58,1.58,0,0,0-.78-1.36L323.35,52.25a1.54,1.54,0,0,0-1.55,0l-78.33,45a1.56,1.56,0,0,0,0,2.71l5.18,3a1.54,1.54,0,0,0,1.55,0l71.6-41.13a1.58,1.58,0,0,1,1.55,0l33.84,19.44a1.56,1.56,0,0,1,0,2.7l-.67.4-23.4,13.38a1.56,1.56,0,0,0,0,2.7l.85.5a1.56,1.56,0,0,1,.78,1.35v1.27A1.55,1.55,0,0,0,337.08,104.88Zm-62.76,67.73,5.21-3a1.56,1.56,0,0,0,.78-1.35l.08-35.65a1.58,1.58,0,0,0-.78-1.36l-27.35-15.71a1.58,1.58,0,0,0-1.56,0l-5.15,3a1.56,1.56,0,0,0,0,2.71l21,12.06a1.56,1.56,0,0,1,0,2.7l-33.9,19.48a1.54,1.54,0,0,1-1.55,0l-.43-.24L204.87,140.4a1.54,1.54,0,0,0-1.55,0l-5.18,3a1.56,1.56,0,0,0,0,2.71l27.79,16a1.55,1.55,0,0,1,.79,1.35l-.08,34a1.57,1.57,0,0,0,2.35,1.36l5.2-3a1.55,1.55,0,0,0,.78-1.34l.06-30.14a1.56,1.56,0,0,1,.79-1.35l33.88-19.42a1.57,1.57,0,0,1,2.34,1.36v1L272,171.25A1.57,1.57,0,0,0,274.32,172.61ZM136.71,299.78l5.17,3a1.55,1.55,0,0,0,2.34-1.35l-.16-70.12a1.56,1.56,0,0,0-.78-1.34l-5.15-3a1.57,1.57,0,0,0-2.35,1.36l.15,70.1A1.56,1.56,0,0,0,136.71,299.78Zm-73-74.41,60.68,35.22a1.55,1.55,0,0,0,2.34-1.35v-6a1.56,1.56,0,0,0-.78-1.34L65.22,216.71a1.56,1.56,0,0,0-2.34,1.35v6A1.56,1.56,0,0,0,63.67,225.37ZM53.09,282l-5.16-3a1.56,1.56,0,0,0-2.35,1.35l.09,38a1.56,1.56,0,0,0,.78,1.35L96.82,349a1.56,1.56,0,0,0,2.34-1.35L99,257.32a1.56,1.56,0,0,0-.78-1.34L93,253a1.56,1.56,0,0,0-2.35,1.35l.17,78.87a1.57,1.57,0,0,1-2.35,1.36L54.71,315a1.55,1.55,0,0,1-.77-1.35l-.07-30.28A1.56,1.56,0,0,0,53.09,282ZM35.48,199.45,2.56,180.35A1.55,1.55,0,0,0,.22,181.7l.12,58.2a1.56,1.56,0,0,0,.78,1.35l33,19.16a1.57,1.57,0,0,0,2.35-1.36l0-6a1.55,1.55,0,0,0-.78-1.34L9.39,236.48a1.55,1.55,0,0,1-.77-1.35l-.1-39a1.57,1.57,0,0,1,2.35-1.36l23.06,13.38a1.55,1.55,0,0,0,2.34-1.35v-6A1.56,1.56,0,0,0,35.48,199.45ZM50,52.3.78,80.54A1.58,1.58,0,0,0,0,81.9l.11,53.53a1.56,1.56,0,0,0,.78,1.35L79,182.12a1.55,1.55,0,0,0,2.34-1.35v-6a1.56,1.56,0,0,0-.78-1.34L9.16,132a1.55,1.55,0,0,1-.77-1.35l-.08-39a1.56,1.56,0,0,1,2.35-1.35l23.42,13.59a1.56,1.56,0,0,0,2.34-1.36h0a1.56,1.56,0,0,1,.78-1.35l2-1.16a1.55,1.55,0,0,0,0-2.7L16.07,84a1.56,1.56,0,0,1,0-2.71L50,61.84a1.58,1.58,0,0,1,1.55,0L77.76,76.93a1.54,1.54,0,0,0,1.55,0l5.18-3a1.57,1.57,0,0,0,0-2.71L51.5,52.3A1.54,1.54,0,0,0,50,52.3Zm57.66,21.61,5.15,3a1.58,1.58,0,0,0,1.56,0L129.8,68a1.56,1.56,0,0,0,0-2.71l-5.18-3a1.54,1.54,0,0,0-1.55,0l-15.46,8.88A1.56,1.56,0,0,0,107.61,73.91Zm77.9,221.27,76.35-43.75a1.54,1.54,0,0,0,.79-1.35v-5.86a1.57,1.57,0,0,0-2.34-1.36L191.84,282.1a1.57,1.57,0,0,1-2.34-1.36l.09-38.71a1.55,1.55,0,0,1,.78-1.35l26.28-15.06a1.56,1.56,0,0,0,.78-1.35V218.4A1.56,1.56,0,0,0,215.1,217L186,233.72a1.58,1.58,0,0,1-1.56,0l-74.12-43a1.56,1.56,0,0,0-2.35,1.35l0,6a1.56,1.56,0,0,0,.78,1.35l71.41,41.44a1.58,1.58,0,0,1,.78,1.35l.09,39a1.57,1.57,0,0,1-2.35,1.36l-23-13.38a1.56,1.56,0,0,0-2.35,1.35v6a1.56,1.56,0,0,0,.78,1.35L184,295.17A1.55,1.55,0,0,0,185.51,295.18ZM271.67,309l-.08,37.67a1.57,1.57,0,0,0,2.34,1.36l50.55-29a1.59,1.59,0,0,0,.79-1.35l.18-38.11a1.57,1.57,0,0,0-2.34-1.37l-5.2,3a1.59,1.59,0,0,0-.79,1.35L316.94,313a1.55,1.55,0,0,1-.78,1.34l-33.87,19.41a1.57,1.57,0,0,1-2.34-1.36L280,306a1.56,1.56,0,0,0-2.34-1.36l-5.21,3A1.54,1.54,0,0,0,271.67,309Zm63.09-56,0,5.86a1.57,1.57,0,0,0,2.35,1.36l32.84-18.91a1.57,1.57,0,0,0,.78-1.35l.13-57.67a1.56,1.56,0,0,0-2.34-1.36l-33,18.9a1.56,1.56,0,0,0-.78,1.35V207a1.56,1.56,0,0,0,2.33,1.36l23.07-13.22a1.56,1.56,0,0,1,2.34,1.36l-.1,38.72a1.54,1.54,0,0,1-.78,1.35l-26.07,15A1.56,1.56,0,0,0,334.76,252.94ZM271.9,205.37l-.15,69.47a1.57,1.57,0,0,0,2.34,1.36l5.21-3a1.56,1.56,0,0,0,.78-1.35l.15-69.47a1.56,1.56,0,0,0-2.34-1.36l-5.2,3A1.57,1.57,0,0,0,271.9,205.37ZM184.75,399.08,233.81,371a1.56,1.56,0,0,0,.78-1.35l.08-37.51a1.56,1.56,0,0,0-2.34-1.36l-5.21,3a1.56,1.56,0,0,0-.78,1.35l-.06,29.81a1.58,1.58,0,0,1-.79,1.35l-33.19,19-.67.4a1.57,1.57,0,0,1-2.36-1.35l.09-38.73a1.55,1.55,0,0,1,.8-1.36l.34-.19,25.91-14.85a1.54,1.54,0,0,0,.79-1.35V322a1.56,1.56,0,0,0-2.34-1.36l-29.64,17a1.58,1.58,0,0,1-1.56,0L155.6,321.32a1.56,1.56,0,0,0-2.34,1.35v6A1.56,1.56,0,0,0,154,330l26.37,15.28a1.57,1.57,0,0,1,.77,1.35l.09,39.06a1.56,1.56,0,0,1-2.36,1.35l-1-.59-32.78-19a1.56,1.56,0,0,1-.78-1.35l-.07-30.28a1.56,1.56,0,0,0-.78-1.34l-5.16-3A1.56,1.56,0,0,0,136,332.8l.09,38a1.56,1.56,0,0,0,.78,1.35l46.32,26.88A1.58,1.58,0,0,0,184.75,399.08Z"/><path class="cls-2" d="M140.59,48.46,174,29.11a25.06,25.06,0,0,1,25.12,0L275.3,73.32l-14.21,8.24-62-36a25.06,25.06,0,0,0-25.12,0l-12.42,7.2a4.05,4.05,0,0,0,0,7l23.36,13.55-14.21,8.24L140.59,64.13A9.06,9.06,0,0,1,140.59,48.46Zm91.9,68.15L199.13,136A25,25,0,0,1,174,136L108.76,98.12a25,25,0,0,0-25.14,0L65.26,108.8l-1.47.85-1.31.76-.11.07a9.08,9.08,0,0,0-3.19,3.24A8.92,8.92,0,0,0,58,118.45c-.3-4.21.13-5.25-4.55-8h0l-.12-.07-.2-.11-.25-.15h0c-8.55-4.95-5.2-6.5-1.41-9.71l1-.56L83.62,81.65a25,25,0,0,1,25.14,0L174,119.48a25,25,0,0,0,25.12,0l12.41-7.2a4,4,0,0,0,0-7L188.3,91.8l14.21-8.24,30,17.39A9.05,9.05,0,0,1,232.49,116.61Zm89.14-16.49L292.91,83.54l-14.2,8.24,28.59,16.41.27.16,3.19,1.83.08,0a8.88,8.88,0,0,1,3.14,3.13s0,0,0,0a9,9,0,0,1,1.2,4.71c.28-4-.09-5.12,3.78-7.57l.07,0,2-1.16C328.61,104.73,325.32,103.24,321.63,100.12Z"/><path class="cls-3" d="M57.9,247.71a22.88,22.88,0,0,0,11.44,19.81L85.79,277l0,16.39L55.24,275.87A22.89,22.89,0,0,1,43.76,256V166.84L57.9,175Zm46.42,39.89,0,16.4,37,21.49a3.72,3.72,0,0,0,5.58-3.2v-5.94a7,7,0,0,0-3.48-6.06ZM53.42,110.4l-.12-.07-.2-.11-.25-.15-.13-.07-.32-.19-.2-.12-.06,0h0c-7.64-4.62-4.36-6.18-.67-9.31l-3,1.76A9.12,9.12,0,0,0,43.76,110V146.7l14.13,8.12L58,122.21v-3.76h0C57.67,114.24,58.09,113.19,53.42,110.4Z"/><path class="cls-4" d="M329.55,213.86l.09,41.75A22.31,22.31,0,0,1,318.47,275L237.3,321.66a7.85,7.85,0,0,1-11.76-6.79l-.08-36.45,14.18-8.15.05,27.44a3.6,3.6,0,0,0,5.39,3.11l59.18-34.05a22.24,22.24,0,0,0,11.17-19.35l0-16.4a3.59,3.59,0,0,0-5.39-3.11l-19.7,11.32a2.76,2.76,0,0,1-4.13-2.38v-7.34a7.34,7.34,0,0,1,3.69-6.39l27.93-16.05A7.85,7.85,0,0,1,329.55,213.86Zm-.2-99.22v-5c0-.13,0-.26,0-.39l0-.39c0-.13,0-.26,0-.39l-.06-.38c0-.13-.05-.25-.08-.38l-.09-.37c0-.13-.07-.25-.11-.37s-.08-.24-.13-.36-.09-.24-.14-.36l-.15-.35-.17-.34c-.06-.1-.12-.2-.18-.32l-.18-.3-.19-.29-.2-.27c-.06-.09-.13-.17-.2-.26l-.21-.25-.23-.23a2.5,2.5,0,0,0-.23-.23,1.7,1.7,0,0,0-.24-.22l-.24-.21-.26-.21-.27-.2-.28-.19-.29-.19-.31-.18-.14-.09c-.94-.54-1.84-1.1-3.05-1.8l.11.1.12.1.24.19c.15.13.3.26.46.38l.45.36.43.36.4.34c.13.11.26.22.38.34l.34.33q.17.16.3.33l.26.33a3,3,0,0,1,.21.33,3.54,3.54,0,0,1,.16.34,2.14,2.14,0,0,1,.09.34,1.47,1.47,0,0,1,0,.36,2.2,2.2,0,0,1,0,.36,2.72,2.72,0,0,1-.11.38,3.49,3.49,0,0,1-.19.39c-.08.14-.18.28-.27.41s-.24.29-.37.43-.3.31-.45.45-.37.33-.56.48-.44.34-.66.51l-.77.53-.87.56a.18.18,0,0,0-.08,0l-.08,0-.13.08s-.07,0-.09,0l-.1.06-.18.11-.39.22-.65.37-.51.29-.13.08c-3.87,2.46-3.52,3.62-3.8,7.58a10.48,10.48,0,0,0-.1-1.4,7.88,7.88,0,0,1,.08,1.09v3.48l.05,22.44A22.32,22.32,0,0,1,304.09,163L236.5,202a22.31,22.31,0,0,0-11.15,19.34l.08,36.85,14.17-8.14,0-20.53a22.25,22.25,0,0,1,11.14-19.34l67.59-39a22.26,22.26,0,0,0,11.14-19.34Z"/></g></svg>